<?xml version="1.0" encoding="utf-8"?>
<!-- Generator: Adobe Illustrator 21.0.2, SVG Export Plug-In . SVG Version: 6.00 Build 0)  -->
<svg version="1.1" xmlns="http://www.w3.org/2000/svg" xmlns:xlink="http://www.w3.org/1999/xlink" x="0px" y="0px"
	 viewBox="0 0 1920 1080" style="enable-background:new 0 0 1920 1080;" xml:space="preserve">
<style type="text/css">
	.st0{fill:#29ABE2;}
	.st1{opacity:0.47;}
	.st2{fill:none;}
	.st3{fill:#FFFFFF;}
	.st4{fill:#006837;}
	.st5{fill:#F7931E;}
	.st6{fill:#FCEE21;}
	.st7{opacity:0.23;}
	.st8{fill:#F15A24;}
	.st9{opacity:0.45;}
	.st10{fill:none;stroke:#000000;stroke-miterlimit:10;}
	.st11{opacity:0.43;}
	.st12{fill:#B3B3B3;}
	.st13{fill:#8C6239;}
	.st14{opacity:0.61;fill:#CCCCCC;}
	.st15{opacity:0.56;fill:#CCCCCC;}
	.st16{opacity:0.45;fill:#FFFF00;}
	.st17{opacity:0.44;fill:#FFFF00;}
	.st18{opacity:0.25;fill:#FFFF00;}
</style>
<g id="sky">
	<rect class="st0" width="1920" height="896"/>
	<g class="st1">
		<rect x="609" y="165" class="st2" width="702" height="320"/>
		<path class="st3" d="M807.5,390.1l10.8-56.7h-88.8l3.5-17.8L843,184h28.5l-24.4,128.4h28.2l-4.1,20.9h-27.9l-10.8,56.7H807.5z
			 M822.4,312.4l13.3-68.8c2.5-10.8,5.4-22.2,7.9-33h-1.3c-8.6,12.7-14.3,22.5-23.1,33.9l-57.4,67.2v0.6H822.4z"/>
		<path class="st3" d="M1036.7,245.2c0,67.2-32,148.4-89.4,148.4c-38,0-51.7-31.4-51.7-70.7c0-68.5,35.8-142.3,90-142.3
			C1025,180.5,1036.7,213.5,1036.7,245.2z M922,324.1c0,21.6,4.1,48.2,28.8,48.2c38.7,0,59.6-84,59.6-125.5c0-16.2-2.5-45-27.6-45
			C947,201.8,922,274,922,324.1z"/>
		<path class="st3" d="M1119.5,390.1l10.8-56.7h-88.8l3.5-17.8L1155,184h28.5l-24.4,128.4h28.2l-4.1,20.9h-27.9l-10.8,56.7H1119.5z
			 M1134.3,312.4l13.3-68.8c2.5-10.8,5.4-22.2,7.9-33h-1.3c-8.6,12.7-14.3,22.5-23.1,33.9l-57.4,67.2v0.6H1134.3z"/>
	</g>
</g>
<g id="ground">
	<path class="st4" d="M-0.5,834.5c0,0,902-281,1921,0c0,247,0,247,0,247H-0.5V834.5z"/>
	<path class="st5" d="M412.4,894.5c0,0,8.4-237.8,90.4-314.9c0,0,58.6,288.1,51.9,299.8C548.1,891.2,412.4,894.5,412.4,894.5z"/>
	<path class="st6" d="M414.1,904.6c-10-105.5,88.8-328.3,88.8-328.3s-241.2,0-319.9,0c16.7,55.3-142.4,328.3-142.4,328.3"/>
	<path class="st6" d="M502.9,576.3c0,0,77,283.1,51.9,303.2"/>
	<path class="st7" d="M70.7,926.3c0,0,79.6-69.5,104.7-62.8c25.1,6.7,83.7,3.3,92.1-1.7c8.4-5,68.7,26.8,63.6,38.5
		c-5,11.7-62.1-14.3-94.6-0.8c-41.3,17.1-37.1-10.3-116.4,22.6C112.2,925.5,62.4,929.7,70.7,926.3z"/>
	<path class="st8" d="M47.7,894.5c0,0-16.7,30.1-30.6,35.2s408.7,5,408.7,5c1.9-0.9-13.4-35.2-13.4-40.2
		C378.6,894.5,47.7,894.5,47.7,894.5z"/>
	<g class="st9">
		<path d="M173.7,652.5c-2.3,11.3-4.5,22.5-7,33.7c-2.5,11.2-5.3,22.4-8.5,33.4c-3.3,11-6.9,22-11.5,32.6
			c-2.3,5.3-4.9,10.5-7.8,15.5c-3,4.9-6.3,9.7-10.5,13.7c3.6-4.5,6.6-9.4,9.2-14.4c2.6-5.1,4.8-10.3,6.9-15.6c2-5.3,4-10.7,5.7-16.1
			c1.8-5.4,3.5-10.9,5-16.4c1.6-5.5,3.1-11,4.6-16.5c1.5-5.5,2.9-11.1,4.4-16.6C167.4,674.6,170.3,663.4,173.7,652.5z"/>
	</g>
	<path class="st8" d="M407.4,894.5c0,0,139-3.3,152.4-26.8c16.7,26.8,8.4,36.8,16.7,36.8s-155.8,30.1-155.8,30.1L407.4,894.5z"/>
	<polyline class="st10" points="503.7,889.5 502,576.3 631,935.6 	"/>
	<line class="st10" x1="502" y1="575.4" x2="445.1" y2="992.5"/>
	<g class="st11">
		<path d="M512.1,644.1c2.1,16.6,3.9,33.2,5.6,49.8c0.4,4.1,0.9,8.3,1.3,12.5l1.3,12.5l2.5,24.9l4.8,49.8
			c1.6,16.6,3.2,33.2,4.6,49.9c-3.4-16.4-6.1-32.9-8.4-49.4c-0.6-4.1-1.2-8.3-1.7-12.4l-1.6-12.4c-1-8.3-1.9-16.6-2.7-24.9
			l-1.1-12.5c-0.4-4.2-0.8-8.3-1.1-12.5c-0.6-8.3-1.3-16.7-1.7-25C512.8,677.5,512.1,660.8,512.1,644.1z"/>
	</g>
	<path class="st12" d="M1020.2,906.4c11.5-4.3,35.6-15,24.2-25.8c-3.1-2.9-4.7-4.6-5.3-5.5c-8.5-1.3-30.3-3.7-35.8,5.8
		C996.4,892.8,1008.6,910.7,1020.2,906.4z"/>
	<path class="st12" d="M1044.7,901.2c9.6,7.7,31.3,22.7,34.6,7.3c0.9-4.2,1.5-6.4,2-7.4c-3.3-8-12.5-27.9-23.5-27.6
		C1044.1,873.8,1035.1,893.5,1044.7,901.2z"/>
	
		<rect x="1020" y="880.4" transform="matrix(0.8052 0.593 -0.593 0.8052 738.0634 -429.9462)" class="st13" width="7" height="56.2"/>
	<path class="st12" d="M1011.2,917.3c-12.3,0-38.6,1.8-31.6,15.8c1.9,3.8,2.8,6,3,7c7.5,4.2,27.2,14,35.6,7
		C1028.8,938.4,1023.5,917.3,1011.2,917.3z"/>
	<rect x="1035.8" y="885.7" class="st13" width="7" height="56.2"/>
	<path class="st12" d="M1029,962.6c11.5-4.3,35.6-15.1,24.1-25.8c-3.1-2.9-4.7-4.6-5.3-5.5c-8.5-1.3-30.3-3.7-35.8,5.8
		C1005.2,949,1017.4,966.9,1029,962.6z"/>
	
		<rect x="1046.3" y="880.4" transform="matrix(0.9512 -0.3084 0.3084 0.9512 -229.0377 368.106)" class="st13" width="7" height="56.2"/>
	<path class="st12" d="M1062,926.9c-11.8,3.4-36.6,12.4-25.9,24c2.9,3.2,4.3,5,4.9,5.9c8.4,2,30,5.9,36.1-3.2
		C1084.7,942.3,1073.8,923.5,1062,926.9z"/>
	<path class="st12" d="M1010.5,918.6c-0.2-12.3-2.5-38.6-16.4-31.3c-3.8,2-5.9,2.9-7,3.2c-4.1,7.6-13.5,27.4-6.3,35.7
		C989.8,936.6,1010.7,930.9,1010.5,918.6z"/>
	<path class="st12" d="M1087.9,938.6c3.2-11.9,8.3-37.7-7.1-34.6c-4.2,0.9-6.5,1.1-7.6,1.1c-6,6.2-20.6,22.6-16,32.5
		C1063,950,1084.7,950.4,1087.9,938.6z"/>
	<path class="st14" d="M1036.7,894.5c0,0,14.7,4.8-1.5-47.5c-16.1-52.2,2.2-57.8,2.2-57.8s-8.1,32.3,2.2,66.2
		C1049.9,889.3,1041.8,897.3,1036.7,894.5z"/>
	<path class="st14" d="M1035.6,893.5c0,0,13.5,7.5,7.5-46.9c-6-54.4,13.1-56.4,13.1-56.4s-14,30.2-10.3,65.4
		C1049.5,890.9,1040.1,897.3,1035.6,893.5z"/>
	<path class="st15" d="M1035.8,776.9c0,0,10.5-19.3,5.3-35.1S1042.8,752.3,1035.8,776.9z"/>
</g>
<g id="Fire">
</g>
<g id="sun">
	<circle class="st16" cx="1667" cy="213" r="202"/>
	<circle class="st17" cx="1667.5" cy="212.5" r="180.5"/>
	<circle class="st18" cx="1667.5" cy="213.5" r="161.5"/>
</g>
<g id="_x34_04">
	<g>
	</g>
	<g>
	</g>
	<g>
	</g>
	<g>
	</g>
	<g>
	</g>
	<g>
	</g>
	<g>
	</g>
	<g>
	</g>
	<g>
	</g>
	<g>
	</g>
	<g>
	</g>
	<g>
	</g>
	<g>
	</g>
	<g>
	</g>
	<g>
	</g>
</g>
</svg>
