<svg xmlns="http://www.w3.org/2000/svg" viewBox="0 0 850.74 381"><title>Asset 11</title><g id="Layer_2" data-name="Layer 2"><g id="mtaleft"><polygon points="3.62 311.5 162.37 152.75 321.12 311.5 3.62 311.5" style="fill:#fff;stroke:#000;stroke-miterlimit:10;stroke-width:3px"/></g><g id="mtaright"><polygon points="529.62 311.5 688.37 152.75 847.12 311.5 529.62 311.5" style="fill:#fff;stroke:#000;stroke-miterlimit:10;stroke-width:3px"/><g id="main"><polygon points="203.62 311.5 413.62 101.5 623.62 311.5 203.62 311.5" style="fill:#fff;stroke:#000;stroke-miterlimit:10;stroke-width:3px"/></g></g><g id="mze3"><circle cx="398.62" cy="190.5" r="190.5" style="fill:#ff6d00;opacity:0.5700000000000001"/></g><g id="mze1"><circle cx="403.62" cy="193.5" r="132.5" style="fill:#ff6d00;opacity:0.55"/></g><g id="mze2"><circle cx="402.62" cy="190.5" r="161.5" style="fill:#ff6d00;opacity:0.47000000000000003"/></g><g id="kaci"><line x1="452.12" y1="212" x2="409.12" y2="373" style="fill:none;stroke:#fff;stroke-miterlimit:10;stroke-width:2px"/><line x1="453.94" y1="193.13" x2="387.3" y2="345.87" style="fill:none;stroke:#fff;stroke-miterlimit:10;stroke-width:2px"/><rect x="451.94" y="191.75" width="3.23" height="4" rx="1" ry="1" transform="translate(115.33 -165.21) rotate(23.57)"/><rect x="450.94" y="210.75" width="3.23" height="4" rx="1" ry="1" transform="translate(87.19 -128.68) rotate(17.88)"/><path d="M416.34,160.46s1.7-7.05,3.4-7.54,5.11.49,6.32-1.94c.73-2.67.49-3.4.49-3.4s.49-1.22.73-1,.24-.49-.24-.49l-.73-.49,1.46-.24-.24-2.43s2.67-.73,3.16-1.46-3.4-5.59-3.4-5.59.24-1.7.73-1.94-1.94-7.29-2.67-7.78c.73-.49,3.65-2.43,2.67-4.13a10.18,10.18,0,0,0-2.19-2.67v1.22a17.87,17.87,0,0,0-2.92-2.19v1a15.3,15.3,0,0,0-2.67-1.94,89.57,89.57,0,0,0-11.43,0c-.49.24-9.48,5.11-9.72,11.91s4.13,16.53,4.13,16.53.24,4.38-1,4.86-4.38,4.13-4.38,4.13,1-7.78-8-10c-5.35,0-6.56-.49-9.72.73l-10.94-2.43s-5.35-1.7-9.72,0-7.78,6.08-8,10.45.49,9.48,4.86,11.67c2.67,3.16,8.51,10.7,8.51,10.7l-1.22,17a2.26,2.26,0,0,0-.24,2.43c0,1.46.24,25.53.49,26.74s-.49,12.4,5.59,13.86a52.09,52.09,0,0,0,12.4,1.22s-1.22,5.59-1,7.78.49,4.86.49,4.86L374.29,290s-11.67,13.61-14.34,24.07S348,340.36,348,340.36s0-1.7-1.22-.49-5.11,5.59-6.08,5.83c-.73.73-2.92,2.67-2.67,4.62a9,9,0,0,0,5.83,7.05c3.89,1.22,7.78,3.16,9.48,5.11a16.56,16.56,0,0,0,10.7,5.83c5.35.49,10.21.24,11.67-1.46s-1.46-5.11-2.92-5.83-12.64-11.43-12.16-15.32,23.82-40.11,23.82-40.11,8.27-7.05,7.29-8.51c1.94.49,7.54,2.19,8.27,1.46s2.67-6.81,2.67-6.81,4.86,8.27,6.32,8.51,10.7-.73,10.7-.73,1.7,21.88,5.59,26.74,13.13,27.47,13.13,27.47-1-.24-1,1.22,1,5.83.73,10.94,8.75,4.38,12.16,1.94,14.1-3.4,14.1-3.4,9.48-4.13,12.64-11.91c0-2.67-2.67-4.62-7.05-2.67s-19.45-1.46-20.42-.49S437,290.76,437,290.76l-17.5-48.38a17,17,0,0,0,1.46-5.83c.24-3.4,1-18.48,1-18.48s18.31,5.92,20.1,7.21,2.51,2,4.46,2,5.83,1.94,7.78,0c.73-1,3.89-5.35,3.4-7.29s-3.16-5.35-3.16-5.35-2.8-1.58-7.17-.12c0,0-1.7,2.92-4.62,2.43s-10.94-5.35-10.94-5.35,7.05-4.13,9-4.13,7.54.24,8.51.73,6.08.73,7.29-1.94S459,195.83,458,195.34s-6.56-1-7.29-1.46.24-.73-.49-1.22-8,5.83-8,5.83-17,3.65-19.45,2.19c.49-1.94.73-10.45.73-10.45a16.81,16.81,0,0,0,.73-10.94s-.49-9.72-6.81-15.07l-.24-2.43S415.49,161.07,416.34,160.46Z" style="fill:#fff"/></g></g></svg>